<svg viewBox="0 0 512 512" xmlns="http://www.w3.org/2000/svg"><g fill="none" stroke="#000" stroke-linecap="round" stroke-linejoin="round" stroke-width="32"><path d="m448 448v-208"/><path d="m64 240v208"/><path d="m382.47 48h-252.94c-21.79 0-41.47 12-49.93 30.46l-43.3 94.54c-14.58 31.81 9.63 67.85 47.19 69q1 0 2 0c31.4 0 56.85-25.18 56.85-52.23 0 27 25.46 52.23 56.86 52.23s56.8-23.38 56.8-52.23c0 27 25.45 52.23 56.85 52.23s56.86-23.38 56.86-52.23c0 28.85 25.45 52.23 56.85 52.23q1 0 1.95 0c37.56-1.17 61.77-37.21 47.19-69l-43.3-94.54c-8.46-18.46-28.14-30.46-49.93-30.46z"/><path d="m32 464h448"/><path d="m136 288h80a24 24 0 0 1 24 24v88a0 0 0 0 1 0 0h-128a0 0 0 0 1 0 0v-88a24 24 0 0 1 24-24z"/><path d="m288 464v-152a24 24 0 0 1 24-24h64a24 24 0 0 1 24 24v152"/></g></svg>